<svg width="24" height="18" viewBox="0 0 24 18" fill="none" xmlns="http://www.w3.org/2000/svg">
<g clip-path="url(#clip0_8_35)">
<path d="M23.25 -0.0625H0.75V18.0625H23.25V-0.0625Z" fill="#F2F2F2"/>
<path fill-rule="evenodd" clip-rule="evenodd" d="M2.625 1.5C2.625 0.6375 1.92625 -0.0625 1.0625 -0.0625C0.2 -0.0625 -0.5 0.6375 -0.5 1.5C-0.5 4.8275 -0.5 12.6013 -0.5 16.1875C-0.5 17.2237 0.34 18.0625 1.375 18.0625C2.04 18.0625 2.625 18.0625 2.625 18.0625C2.625 18.0625 2.625 5.89875 2.625 1.5Z" fill="#363434"/>
<path fill-rule="evenodd" clip-rule="evenodd" d="M21.375 1.5C21.375 0.6375 22.075 -0.0625 22.9375 -0.0625H22.94C23.8025 -0.0625 24.5 0.63625 24.5 1.4975C24.5 4.82375 24.5 12.6 24.5 16.1875C24.5 17.2237 23.6612 18.0625 22.625 18.0625C21.9612 18.0625 21.375 18.0625 21.375 18.0625C21.375 18.0625 21.375 5.89875 21.375 1.5Z" fill="#363434"/>
<path fill-rule="evenodd" clip-rule="evenodd" d="M0.279903 2.8525C-0.0788466 2.645 -0.340097 2.305 -0.447597 1.905C-0.555097 1.505 -0.498847 1.08 -0.291347 0.721253C-0.291347 0.721253 -0.290097 0.720003 -0.290097 0.718753C-0.0825967 0.360003 0.258653 0.0987531 0.658653 -0.00874688C1.05865 -0.116247 1.4849 -0.0599969 1.84365 0.147503L11.9999 6.01125L22.1587 0.146253C22.5174 -0.0612474 22.9424 -0.117497 23.3424 -0.00999739C23.7424 0.0975026 24.0824 0.358753 24.2899 0.717503L24.2912 0.718753C24.4987 1.0775 24.5549 1.505 24.4474 1.905C24.3399 2.305 24.0774 2.64625 23.7187 2.85375L15.1249 7.815L11.9999 9.62L8.8749 7.815L0.279903 2.8525Z" fill="#363434"/>
</g>
<defs>
<clipPath id="clip0_8_35">
<rect width="24" height="18" fill="white"/>
</clipPath>
</defs>
</svg>
