<svg width="492" height="378" viewBox="0 0 492 378" fill="none" xmlns="http://www.w3.org/2000/svg">
<path d="M-24 410C27.0932 348.319 58.0701 313.73 126 252M126 252C120.373 191.324 113.97 157.566 94.5 98M126 252C188.673 280.476 211.711 304.619 294.5 319.5C348.006 295.095 380.223 288.335 440 283.5M94.5 98C122.125 73.7241 137.316 59.8065 162 32.5M94.5 98C77.5806 84.0684 70.3759 74.1315 58.5 55.5M162 32.5C162 32.5 199.5 65.5 199.5 55.5M162 32.5L199.5 1M440 283.5C440 283.5 491 312.5 480.5 319.5M440 283.5C440 283.5 487 252 491 262.5" stroke="#729195" stroke-width="2"/>
</svg>
