<svg width="20" height="20" viewBox="0 0 20 20" fill="none" xmlns="http://www.w3.org/2000/svg">
<g clip-path="url(#clip0_8_41)">
<path d="M20 0H0V20H20V0Z" fill="#323232"/>
<path fill-rule="evenodd" clip-rule="evenodd" d="M16.3799 6.8902C16.4727 6.5812 16.3799 6.3542 15.9399 6.3542H14.4799C14.1091 6.3542 13.9381 6.5504 13.8453 6.7666C13.8453 6.7666 13.1037 8.5742 12.0531 9.7484C11.7131 10.0884 11.5587 10.1964 11.3731 10.1964C11.2805 10.1964 11.1463 10.0884 11.1463 9.7794V6.8902C11.1463 6.5194 11.0387 6.3542 10.7297 6.3542H8.43991C8.20831 6.3542 8.06891 6.5262 8.06891 6.6894C8.06891 7.0408 8.59411 7.122 8.64891 8.1108V10.2584C8.64891 10.7292 8.56391 10.8146 8.37851 10.8146C7.88411 10.8146 6.68151 8.9988 5.96831 6.9212C5.82831 6.5172 5.68831 6.3542 5.31551 6.3542H3.85571C3.43891 6.3542 3.35571 6.5504 3.35571 6.7666C3.35571 7.1528 3.85011 9.0686 5.65771 11.6024C6.86271 13.3328 8.55991 14.2708 10.1057 14.2708C11.0327 14.2708 11.1473 14.0624 11.1473 13.7036V12.3958C11.1473 11.9792 11.2351 11.8958 11.5287 11.8958C11.7449 11.8958 12.1157 12.004 12.9809 12.8382C13.9697 13.827 14.1327 14.2706 14.6889 14.2706H16.1473C16.5639 14.2706 16.7723 14.0622 16.6521 13.6506C16.5205 13.2408 16.0485 12.6462 15.4221 11.9416C15.0821 11.5398 14.5723 11.1072 14.4177 10.891C14.2015 10.6128 14.2633 10.4892 14.4177 10.242C14.4177 10.2428 16.1945 7.74 16.3799 6.8902Z" fill="white"/>
</g>
<defs>
<clipPath id="clip0_8_41">
<rect width="20" height="20" fill="white"/>
</clipPath>
</defs>
</svg>
